<svg xmlns="http://www.w3.org/2000/svg" viewBox="0 0 22.712 38.638"><defs><style>.a{fill:#4267b2;}.b,.c{stroke:none;}.c{fill:#fff;}</style></defs><g transform="translate(3 3)"><g transform="translate(0)"><g transform="translate(0)"><g class="a" transform="translate(-121.172)"><path class="b" d="M 132.8915252685547 34.13837432861328 L 131.3919067382813 34.13837432861328 L 125.2742385864258 34.13837432861328 L 123.7742385864258 34.13837432861328 L 123.7742385864258 32.63837432861328 L 123.7742385864258 17.81915473937988 L 121.1720275878906 17.81915473937988 L 119.6720275878906 17.81915473937988 L 119.6720275878906 16.31915473937988 L 119.6720275878906 10.69516563415527 L 119.6720275878906 9.195895195007324 L 121.1712951660156 9.195165634155273 L 123.7714767456055 9.193891525268555 L 123.7681427001953 7.383105278015137 C 123.7681427001953 3.245815277099609 124.6944961547852 -1.49999475479126 131.9181976318359 -1.49999475479126 L 137.4891662597656 -1.49999475479126 L 138.9891662597656 -1.49999475479126 L 138.9891662597656 5.256958047539229e-06 L 138.9891662597656 5.626065254211426 L 138.9891662597656 7.126065254211426 L 137.4891662597656 7.126065254211426 L 133.6011505126953 7.126065254211426 C 133.2525329589844 7.126065254211426 133.0419921875 7.152645587921143 132.9230346679688 7.176592350006104 C 132.8980712890625 7.392416954040527 132.8980712890625 7.743106365203857 132.8980712890625 7.878115177154541 L 132.8942413330078 9.193155288696289 L 137.5483703613281 9.193155288696289 L 139.2162322998047 9.193155288696289 L 139.0399627685547 10.85168552398682 L 138.4422454833984 16.47566604614258 L 138.2997283935547 17.8166446685791 L 136.9512023925781 17.81713485717773 L 132.8956451416016 17.8186092376709 L 132.8919067382813 32.63875579833984 L 132.8915252685547 34.13837432861328 Z"/><path class="c" d="M 131.3919067382813 32.63837432861328 L 131.3960266113281 16.31915473937988 L 136.9506530761719 16.31713485717773 L 137.5483703613281 10.69315528869629 L 131.389892578125 10.69315528869629 L 131.3980712890625 7.878115177154541 C 131.3980712890625 6.411435127258301 131.5000762939453 5.626065254211426 133.6011505126953 5.626065254211426 L 137.4891662597656 5.626065254211426 L 137.4891662597656 5.256958047539229e-06 L 131.9181976318359 5.256958047539229e-06 C 126.5124359130859 5.256958047539229e-06 125.2681427001953 2.792635202407837 125.2681427001953 7.380345344543457 L 125.2742385864258 10.69315528869629 L 121.1720275878906 10.69516563415527 L 121.1720275878906 16.31915473937988 L 125.2742385864258 16.31915473937988 L 125.2742385864258 32.63837432861328 L 131.3919067382813 32.63837432861328 M 134.3911437988281 35.63837432861328 L 131.3919067382813 35.63837432861328 L 125.2742385864258 35.63837432861328 L 122.2742385864258 35.63837432861328 L 122.2742385864258 32.63837432861328 L 122.2742385864258 19.31915473937988 L 121.1720275878906 19.31915473937988 L 118.1720275878906 19.31915473937988 L 118.1720275878906 16.31915473937988 L 118.1720275878906 10.69516563415527 L 118.1720275878906 7.696635246276855 L 121.1705627441406 7.695165157318115 L 122.2687149047852 7.694627285003662 L 122.2681503295898 7.385865211486816 L 122.2681427001953 7.383105278015137 L 122.2681427001953 7.380345344543457 C 122.2681427001953 5.161585330963135 122.4872589111328 2.332425355911255 124.195930480957 0.1305652558803558 C 125.0416793823242 -0.9592947363853455 126.1641311645508 -1.775714755058289 127.532096862793 -2.296004772186279 C 128.7776184082031 -2.769714832305908 130.2123260498047 -2.99999475479126 131.9181976318359 -2.99999475479126 L 137.4891662597656 -2.99999475479126 L 140.4891662597656 -2.99999475479126 L 140.4891662597656 5.256958047539229e-06 L 140.4891662597656 5.626065254211426 L 140.4891662597656 7.693155288696289 L 140.8841094970703 7.693155288696289 L 140.5315704345703 11.01021480560303 L 139.9338531494141 16.63419532775879 L 139.6488037109375 19.31615447998047 L 136.9517364501953 19.31713485717773 L 134.3952789306641 19.31806564331055 L 134.3919067382813 32.63913345336914 L 134.3911437988281 35.63837432861328 Z"/></g></g></g></g></svg>