<svg viewBox="0 0 28.084 23.425"><defs><style>.a{fill:#f7b239;}.b{fill:#4d4d4d;}.c{fill:#2ba5f7;}.d{fill:#2197d8;}.e{fill:#a81004;}.f{fill:#f2f2f2;}.g{fill:#f95428;}</style></defs><ellipse class="a" cx="12.376" cy="11.712" rx="12.376" ry="11.712" transform="translate(1.665 0)"/><path class="a" d="M36.245,92.7a11.253,11.253,0,0,1-1.053-15.432,12.317,12.317,0,0,0-1.2,1,11.273,11.273,0,0,0,0,16.564,12.878,12.878,0,0,0,17.5,0A12.059,12.059,0,0,0,52.551,93.7,12.9,12.9,0,0,1,36.245,92.7Z" transform="translate(-28.705 -74.833)"/><g transform="translate(4.922 5.564)"><path class="b" d="M95.085,140.734a.447.447,0,0,1-.459-.434,1.991,1.991,0,0,0-3.976,0,.459.459,0,0,1-.917,0,2.91,2.91,0,0,1,5.811,0A.447.447,0,0,1,95.085,140.734Z" transform="translate(-89.733 -137.55)"/><path class="b" d="M321.675,140.734a.447.447,0,0,1-.459-.434,1.991,1.991,0,0,0-3.976,0,.459.459,0,0,1-.917,0,2.91,2.91,0,0,1,5.811,0A.447.447,0,0,1,321.675,140.734Z" transform="translate(-303.894 -137.55)"/></g><path class="c" d="M0,209.5H0a2.621,2.621,0,0,1,2.69-2.546h2.69V209.5a2.621,2.621,0,0,1-2.69,2.546h0A2.621,2.621,0,0,1,0,209.5Z" transform="translate(0 -197.789)"/><path class="d" d="M1.275,209.5h0a2.621,2.621,0,0,1,2.69-2.546H2.69A2.621,2.621,0,0,0,0,209.5H0a2.621,2.621,0,0,0,2.69,2.546h0a2.841,2.841,0,0,0,.638-.073A2.579,2.579,0,0,1,1.275,209.5Z" transform="translate(0 -197.789)"/><path class="c" d="M419.285,209.5h0a2.621,2.621,0,0,0-2.69-2.546H413.9V209.5a2.621,2.621,0,0,0,2.69,2.546h0A2.621,2.621,0,0,0,419.285,209.5Z" transform="translate(-391.201 -197.789)"/><path class="d" d="M414.917,209.5v-2.546H413.9V209.5a2.621,2.621,0,0,0,2.69,2.546h0A2.849,2.849,0,0,0,417.1,212,2.588,2.588,0,0,1,414.917,209.5Z" transform="translate(-391.2 -197.789)"/><path class="e" d="M149.69,230.964a.559.559,0,0,0-.889.422v1.537a5.442,5.442,0,0,0,2.177,4.321,6.14,6.14,0,0,0,7.407,0,5.654,5.654,0,0,0,.454-.387,5.4,5.4,0,0,0,1.722-3.934v-1.537a.559.559,0,0,0-.889-.422A8.7,8.7,0,0,1,149.69,230.964Z" transform="translate(-140.639 -220.451)"/><path class="f" d="M160.562,231.386v.875a8.653,8.653,0,0,1-11.76,0v-.875a.559.559,0,0,1,.889-.423,8.7,8.7,0,0,0,9.982,0A.559.559,0,0,1,160.562,231.386Z" transform="translate(-140.64 -220.45)"/><path class="g" d="M193.695,329.763a2.528,2.528,0,0,1,2.2,1.258,6.139,6.139,0,0,1-7.407-.039,2.531,2.531,0,0,1,2.214-1.235,2.59,2.59,0,0,1,1.494.477A2.591,2.591,0,0,1,193.695,329.763Z" transform="translate(-178.149 -314.207)"/></svg>