<svg viewBox="0 0 18.721 36.371"><defs><style>.a{fill:url(#a);}</style><linearGradient id="a" x1="0.268" y1="-0.386" x2="0.786" y2="0.653" gradientUnits="objectBoundingBox"><stop offset="0" stop-color="#2982aa"/><stop offset="1" stop-color="#3337aa"/></linearGradient></defs><path class="a" d="M31.135,28a.607.607,0,0,0-.585.627V32.39c0,4.841-3.674,8.779-8.19,8.779s-8.19-3.938-8.19-8.779V28.627a.586.586,0,1,0-1.17,0V32.39c0,5.321,3.887,9.675,8.775,10v3.167H18.85a.629.629,0,0,0,0,1.254h7.02a.629.629,0,0,0,0-1.254H22.945V42.391c4.888-.326,8.775-4.681,8.775-10V28.627A.607.607,0,0,0,31.135,28Z" transform="translate(-13 -10.442)"/><path class="a" d="M24.435,28.846a6.686,6.686,0,0,0,6.435-6.9V6.9A6.686,6.686,0,0,0,24.435,0,6.686,6.686,0,0,0,18,6.9v15.05A6.686,6.686,0,0,0,24.435,28.846Z" transform="translate(-15.075)"/></svg>