<svg xmlns:xlink="http://www.w3.org/1999/xlink" viewBox="0 0 32.68 28.024"><defs><style>.a{fill:url(#a);}</style><linearGradient id="a" x1="0.5" x2="0.5" y2="1" gradientUnits="objectBoundingBox"><stop offset="0" stop-color="#2982aa"/><stop offset="1" stop-color="#3337aa"/></linearGradient></defs><g transform="translate(0 0)"><path class="a" d="M16.34,20.509a5.088,5.088,0,0,0-4.9,5.254,5.087,5.087,0,0,0,4.9,5.254,5.088,5.088,0,0,0,4.9-5.254A5.088,5.088,0,0,0,16.34,20.509Zm13.072-5.254H25.49a1.467,1.467,0,0,1-1.291-1L23.186,11A1.468,1.468,0,0,0,21.9,10H10.784a1.467,1.467,0,0,0-1.291,1L8.48,14.258a1.468,1.468,0,0,1-1.291,1H3.268A3.4,3.4,0,0,0,0,18.757V34.521a3.4,3.4,0,0,0,3.268,3.5H29.412a3.4,3.4,0,0,0,3.268-3.5V18.757A3.4,3.4,0,0,0,29.412,15.254ZM16.34,34.521c-4.512,0-8.17-3.921-8.17-8.757s3.658-8.757,8.17-8.757,8.17,3.921,8.17,8.757S20.851,34.521,16.34,34.521ZM28.268,21.207a1.229,1.229,0,1,1,1.144-1.226A1.187,1.187,0,0,1,28.268,21.207Z" transform="translate(0 -10)"/></g></svg>