<svg xmlns:xlink="http://www.w3.org/1999/xlink" viewBox="0 0 35.203 26.953"><defs><style>.a{fill:url(#a);}</style><linearGradient id="a" x1="0.5" x2="0.5" y2="1" gradientUnits="objectBoundingBox"><stop offset="0" stop-color="#2982aa"/><stop offset="1" stop-color="#3337aa"/></linearGradient></defs><path class="a" d="M34.436,73.869a1.289,1.289,0,0,0-.491-.105,1.132,1.132,0,0,0-.884.4l-7.917,8.465V79.155a6.059,6.059,0,0,0-1.66-4.285,5.273,5.273,0,0,0-4-1.779H5.657a5.273,5.273,0,0,0-4,1.779A6.06,6.06,0,0,0,0,79.155V93.979a6.059,6.059,0,0,0,1.66,4.285,5.273,5.273,0,0,0,4,1.779H19.487a5.272,5.272,0,0,0,4-1.779,6.058,6.058,0,0,0,1.66-4.285v-3.5l7.917,8.486a1.132,1.132,0,0,0,.884.4,1.291,1.291,0,0,0,.491-.105,1.263,1.263,0,0,0,.766-1.242V75.112A1.264,1.264,0,0,0,34.436,73.869Z" transform="translate(0 -73.09)"/></svg>