<svg viewBox="0 0 16.788 16.788"><defs><style>.a{fill:#3337aa;}</style></defs><path class="a" d="M0,16.788v0L.01,1.678A1.675,1.675,0,0,1,1.679,0H15.113a1.678,1.678,0,0,1,1.675,1.678V11.752a1.678,1.678,0,0,1-1.675,1.678H3.359L0,16.787Zm5.693-9.34a.257.257,0,0,0-.183.079l-.361.362a.247.247,0,0,0,0,.362l.051.078,2.02,2.177a.239.239,0,0,0,.181.078.243.243,0,0,0,.184-.078l4.146-4.3a.255.255,0,0,0,0-.364l-.365-.362a.247.247,0,0,0-.362,0h-.027l-3.471,3.6a.13.13,0,0,1-.091.038.132.132,0,0,1-.091-.038L5.9,7.551l-.024-.024A.255.255,0,0,0,5.693,7.448Zm0-2.761a.26.26,0,0,0-.183.077l-.361.364a.247.247,0,0,0,0,.361l.051.078,2.02,2.177a.239.239,0,0,0,.181.078.243.243,0,0,0,.184-.078l4.146-4.3a.252.252,0,0,0,0-.361l-.365-.362a.247.247,0,0,0-.362,0h-.027l-3.471,3.6a.13.13,0,0,1-.091.038.132.132,0,0,1-.091-.038L5.9,4.791l-.024-.027A.258.258,0,0,0,5.693,4.687Z" transform="translate(0)"/></svg>