<svg xmlns:xlink="http://www.w3.org/1999/xlink" viewBox="0 0 32.904 35.271"><defs><style>.a{fill:url(#a);}.b{fill:#fff;}</style><linearGradient id="a" x1="0.5" x2="0.5" y2="1" gradientUnits="objectBoundingBox"><stop offset="0" stop-color="#2982aa"/><stop offset="1" stop-color="#3337aa"/></linearGradient></defs><path class="a" d="M16.452,0C7.381,0,0,7.911,0,17.635S7.381,35.271,16.452,35.271,32.9,27.359,32.9,17.635,25.524,0,16.452,0Z"/><path class="b" d="M128.556,298.706a.682.682,0,0,0-.825.545,8.116,8.116,0,0,1-16.01-.009.689.689,0,0,0-.825-.547.739.739,0,0,0-.51.884,9.468,9.468,0,0,0,18.678.012A.738.738,0,0,0,128.556,298.706Z" transform="translate(-103.274 -278.101)"/><ellipse class="b" cx="1.371" cy="1.47" rx="1.371" ry="1.47" transform="translate(9.597 11.757)"/><ellipse class="b" cx="1.371" cy="1.47" rx="1.371" ry="1.47" transform="translate(20.565 11.757)"/></svg>