<svg viewBox="0 0 20.344 20.344"><defs><style>.a{fill:#f7b239;}.b{fill:#e09b2d;}.c{fill:#4d4d4d;}</style></defs><ellipse class="a" cx="10.172" cy="10.172" rx="10.172" ry="10.172" transform="translate(0 0)"/><g transform="translate(0 2.114)"><path class="a" d="M4.827,66.606a10.174,10.174,0,0,1-.865-13.4,10.172,10.172,0,1,0,13.4,15.25,10.269,10.269,0,0,0,.865-.983A10.173,10.173,0,0,1,4.827,66.606Z" transform="translate(0.001 -53.204)"/><path class="b" d="M222.069,356.812a4.182,4.182,0,0,1-1.129-.155.377.377,0,0,1,.2-.726,3.426,3.426,0,0,0,1.85,0,.377.377,0,0,1,.2.726A4.183,4.183,0,0,1,222.069,356.812Z" transform="translate(-211.897 -343.889)"/></g><g transform="translate(4.023 6.621)"><path class="c" d="M324.232,166.633a1.395,1.395,0,1,0,1.395,1.395A1.4,1.4,0,0,0,324.232,166.633Z" transform="translate(-314.032 -166.633)"/><path class="c" d="M104.558,182.081a.377.377,0,0,0,.647-.387,2.281,2.281,0,0,0-3.915,0,.377.377,0,0,0,.647.387,1.526,1.526,0,0,1,2.621,0Z" transform="translate(-101.237 -180.029)"/><path class="c" d="M168.922,275.728a.377.377,0,0,0-.517.13,3.553,3.553,0,0,1-6.1,0,.377.377,0,0,0-.647.387,4.307,4.307,0,0,0,7.395,0A.377.377,0,0,0,168.922,275.728Z" transform="translate(-159.206 -271.342)"/></g></svg>