<svg xmlns="http://www.w3.org/2000/svg" viewBox="0 0 15.984 15.986"><defs><style>.a{fill:#fff;}</style></defs><path class="a" d="M-19239-3236.016l.012-14.388a1.593,1.593,0,0,1,1.586-1.6h12.791a1.583,1.583,0,0,1,1.127.47,1.585,1.585,0,0,1,.469,1.128v9.593a1.585,1.585,0,0,1-.469,1.127,1.585,1.585,0,0,1-1.127.47h-11.191l-3.2,3.2Zm5.42-9.491a.248.248,0,0,0-.174.074l-.346.346a.276.276,0,0,0-.074.172.27.27,0,0,0,.074.173l.049.074,1.926,2.073a.225.225,0,0,0,.172.074.226.226,0,0,0,.174-.074l3.947-4.1a.237.237,0,0,0,0-.345l-.346-.346a.242.242,0,0,0-.172-.074.247.247,0,0,0-.174.074h-.023l-3.307,3.43a.121.121,0,0,1-.086.037.118.118,0,0,1-.086-.037l-1.359-1.456-.023-.025A.247.247,0,0,0-19233.582-3245.506Zm0-2.031a.246.246,0,0,0-.174.074l-.346.346a.278.278,0,0,0-.074.172.278.278,0,0,0,.074.173l.049.074,1.926,2.072a.219.219,0,0,0,.172.074.223.223,0,0,0,.174-.074l3.947-4.1a.237.237,0,0,0,0-.345l-.346-.345a.242.242,0,0,0-.172-.074.247.247,0,0,0-.174.074h-.023l-3.307,3.43a.122.122,0,0,1-.086.036.119.119,0,0,1-.086-.036l-1.359-1.456-.023-.025A.245.245,0,0,0-19233.582-3247.538Z" transform="translate(19239.002 3252.001)"/></svg>