<svg xmlns="http://www.w3.org/2000/svg" viewBox="0 0 49.325 46.896"><defs><style>.a{fill:#d75a4a;}.b,.c{stroke:none;}.c{fill:#fff;}</style></defs><g class="a" transform="translate(3 1)"><path class="b" d="M 21.52439308166504 43.87767791748047 L 20.52488136291504 42.97055816650391 L 5.405892372131348 29.24925994873047 C 3.829912185668945 27.82132911682129 2.480742216110229 26.18998908996582 1.396782279014587 24.40136909484863 C 0.2766522765159607 22.55305862426758 -0.537537693977356 20.57279014587402 -1.023157715797424 18.51556015014648 C -1.683475613594055 15.7187442779541 -1.488473892211914 13.98157405853271 -1.419411778450012 13.54310607910156 C -1.097838997840881 10.06269359588623 0.2932272255420685 6.83711051940918 2.501262187957764 4.455018997192383 C 4.865352153778076 1.904589176177979 8.026542663574219 0.4999992251396179 11.40250205993652 0.4999992251396179 C 15.50725746154785 0.4999992251396179 19.19986724853516 2.53053879737854 21.54503440856934 5.945202350616455 C 23.92800140380859 2.569294691085815 27.76256942749023 0.5008692145347595 31.9225025177002 0.5008692145347595 C 35.2984619140625 0.5008692145347595 38.45965194702148 1.90545916557312 40.8237419128418 4.455889225006104 C 43.03177642822266 6.8379807472229 44.42284393310547 10.06356430053711 44.74441528320313 13.54397678375244 C 44.8134765625 13.98244476318359 45.00848007202148 15.71961879730225 44.34814071655273 18.5164794921875 C 43.86258316040039 20.57349014282227 43.04839324951172 22.55366897583008 41.92820358276367 24.40193939208984 C 40.84444046020508 26.19011878967285 39.49534225463867 27.82149887084961 37.91838073730469 29.25078010559082 L 37.91404342651367 29.25471878051758 L 37.90966415405273 29.25862884521484 L 22.53157234191895 42.97906875610352 L 21.52439308166504 43.87767791748047 Z"/><path class="c" d="M 21.53295135498047 41.85979843139648 L 36.91104125976563 28.13935852050781 C 39.81648254394531 25.50601005554199 41.97151184082031 22.05554962158203 42.88828277587891 18.17181015014648 C 43.56156158447266 15.32010936737061 43.25568389892578 13.73610877990723 43.25568389892578 13.73610877990723 C 42.68898391723633 7.355079174041748 38.18136215209961 2.000869274139404 31.9225025177002 2.000869274139404 C 27.27623176574707 2.000869274139404 23.28159141540527 4.896769046783447 21.53295135498047 9.041318893432617 C 19.78433227539063 4.896769046783447 16.04963302612305 1.999999165534973 11.40250205993652 1.999999165534973 C 5.143642425537109 1.999999165534973 0.6360222697257996 7.354209423065186 0.06932228803634644 13.73523902893066 C 0.06932228803634644 13.73523902893066 -0.2365577071905136 15.31923961639404 0.4367222785949707 18.17094993591309 C 1.35350227355957 22.05467987060547 3.508532285690308 25.50601005554199 6.413962364196777 28.13849830627441 L 21.53295135498047 41.85979843139648 M 21.51584243774414 45.89554977416992 L 19.51680183410645 44.08131790161133 L 4.397812366485596 30.36001968383789 C 2.715112209320068 28.83539962768555 1.273212313652039 27.09161949157715 0.1139722913503647 25.17878913879395 C -1.087567687034607 23.19615936279297 -1.9613276720047 21.07026863098145 -2.483027696609497 18.86017990112305 C -3.173982620239258 15.93363285064697 -3.006409168243408 14.02061080932617 -2.90890097618103 13.36077499389648 C -2.549268960952759 9.569779396057129 -1.021013259887695 6.048439025878906 1.401172280311584 3.435319185256958 C 4.052352428436279 0.5751591920852661 7.604222297668457 -1.000000834465027 11.40250205993652 -1.000000834465027 C 15.3550443649292 -1.000000834465027 18.96280479431152 0.6679006218910217 21.56348419189453 3.547840356826782 C 24.21968841552734 0.6945086717605591 27.93657684326172 -0.9991307854652405 31.9225025177002 -0.9991307854652405 C 35.72078323364258 -0.9991307854652405 39.27265167236328 0.5760292410850525 41.92383193969727 3.4361891746521 C 44.34601593017578 6.049309253692627 45.87427520751953 9.570650100708008 46.23390579223633 13.36164665222168 C 46.33141326904297 14.02148342132568 46.49898529052734 15.93451404571533 45.80801391601563 18.86114883422852 C 45.28637313842773 21.07098007202148 44.41260147094727 23.1967887878418 43.21099090576172 25.17940902709961 C 42.052001953125 27.09170913696289 40.61023330688477 28.83544921875 38.92572402954102 30.36220932006836 L 38.91703414916992 30.37008857727051 L 38.90828323364258 30.37789916992188 L 23.53019142150879 44.09833908081055 L 21.51584243774414 45.89554977416992 Z"/></g></svg>