<svg xmlns="http://www.w3.org/2000/svg" viewBox="0 0 45.922 45.462"><defs><style>.a{fill:#f7b239;stroke:#fff;stroke-width:3px;}.b{fill:#4d4d4d;}.c{fill:#2ba5f7;}.d{fill:#a81004;}.e{fill:#f2f2f2;}.f{fill:#f95428;}.g{stroke:none;}.h{fill:none;}</style></defs><g transform="translate(0.314 3)"><g class="a" transform="translate(2.686 0)"><ellipse class="g" cx="19.961" cy="19.731" rx="19.961" ry="19.731"/><ellipse class="h" cx="19.961" cy="19.731" rx="21.461" ry="21.231"/></g><g transform="translate(7.938 9.373)"><path class="b" d="M98.366,142.914a.736.736,0,0,1-.74-.731,3.207,3.207,0,0,0-6.413,0,.74.74,0,0,1-1.48,0,4.687,4.687,0,0,1,9.372,0A.736.736,0,0,1,98.366,142.914Z" transform="translate(-89.733 -137.55)"/><path class="b" d="M324.955,142.914a.736.736,0,0,1-.74-.731,3.207,3.207,0,0,0-6.413,0,.74.74,0,0,1-1.48,0,4.686,4.686,0,0,1,9.372,0A.736.736,0,0,1,324.955,142.914Z" transform="translate(-296.277 -137.55)"/></g><path class="c" d="M0,211.245H0a4.314,4.314,0,0,1,4.339-4.289H8.678v4.289a4.314,4.314,0,0,1-4.339,4.289h0A4.314,4.314,0,0,1,0,211.245Z" transform="translate(0 -191.514)"/><path class="c" d="M422.582,211.245h0a4.314,4.314,0,0,0-4.339-4.289H413.9v4.289a4.314,4.314,0,0,0,4.339,4.289h0A4.314,4.314,0,0,0,422.582,211.245Z" transform="translate(-377.288 -191.514)"/><path class="d" d="M150.235,231.037a.9.9,0,0,0-1.434.712v2.59a9.309,9.309,0,0,0,3.511,7.28,9.567,9.567,0,0,0,11.946,0,9.369,9.369,0,0,0,3.51-7.28v-2.59a.9.9,0,0,0-1.434-.712A13.544,13.544,0,0,1,150.235,231.037Z" transform="translate(-135.637 -213.326)"/><path class="e" d="M167.768,231.748v1.474a13.523,13.523,0,0,1-18.966,0v-1.474a.9.9,0,0,1,1.434-.712,13.543,13.543,0,0,0,16.1,0A.9.9,0,0,1,167.768,231.748Z" transform="translate(-135.638 -213.325)"/><path class="f" d="M196.885,329.774a4.05,4.05,0,0,1,3.548,2.119,9.567,9.567,0,0,1-11.946-.065,4.073,4.073,0,0,1,5.98-1.277A4.055,4.055,0,0,1,196.885,329.774Z" transform="translate(-171.813 -303.567)"/></g></svg>