<svg xmlns="http://www.w3.org/2000/svg" viewBox="0 0 46.263 45.86"><defs><style>.a,.b{fill:#f7b239;}.c{fill:#4d4d4d;}.d,.e{stroke:none;}.e{fill:#fff;}</style></defs><g transform="translate(3 3)"><g class="a" transform="translate(0 0)"><path class="d" d="M 20.13148498535156 41.35981750488281 C 17.21377563476563 41.35981750488281 14.38241481781006 40.79370880126953 11.71605491638184 39.67722702026367 C 9.140424728393555 38.59873962402344 6.82734489440918 37.05485916137695 4.841064929962158 35.08847045898438 C 2.853744983673096 33.12104797363281 1.293164968490601 30.82928848266602 0.2026549875736237 28.27685928344727 C -0.9271450042724609 25.63246917724609 -1.499994993209839 22.82414817810059 -1.499994993209839 19.92990875244141 C -1.499994993209839 17.03566932678223 -0.9271450042724609 14.2273588180542 0.2026549875736237 11.58295917510986 C 1.293164968490601 9.030529022216797 2.853744983673096 6.738778591156006 4.841064929962158 4.77134895324707 C 6.82734489440918 2.80496883392334 9.140424728393555 1.261078715324402 11.71605491638184 0.1825887560844421 C 14.38241481781006 -0.933891236782074 17.21377563476563 -1.500001192092896 20.13148498535156 -1.500001192092896 C 23.0491943359375 -1.500001192092896 25.88055419921875 -0.933891236782074 28.54692459106445 0.1825887560844421 C 31.12255477905273 1.261078715324402 33.43562316894531 2.80496883392334 35.42190551757813 4.77134895324707 C 37.40922546386719 6.738768577575684 38.96981430053711 9.030529022216797 40.06032562255859 11.58295917510986 C 41.19011688232422 14.2273588180542 41.76297378540039 17.03566932678223 41.76297378540039 19.92990875244141 C 41.76297378540039 22.82414817810059 41.19011688232422 25.63246917724609 40.06032562255859 28.27685928344727 C 38.96981430053711 30.82928848266602 37.40922546386719 33.12104797363281 35.42190551757813 35.08847045898438 C 33.43562316894531 37.05485916137695 31.12255477905273 38.59873962402344 28.54692459106445 39.67722702026367 C 25.88055419921875 40.79370880126953 23.0491943359375 41.35981750488281 20.13148498535156 41.35981750488281 Z"/><path class="e" d="M 20.13148498535156 39.85981750488281 C 31.24979591369629 39.85981750488281 40.26297378540039 30.93689918518066 40.26297378540039 19.92990875244141 C 40.26297378540039 8.922928810119629 31.24979591369629 -1.247558543582272e-06 20.13148498535156 -1.247558543582272e-06 C 9.013175010681152 -1.247558543582272e-06 4.985351552022621e-06 8.922928810119629 4.985351552022621e-06 19.92990875244141 C 4.985351552022621e-06 30.93689918518066 9.013175010681152 39.85981750488281 20.13148498535156 39.85981750488281 M 20.13148498535156 42.85981750488281 C 17.0138053894043 42.85981750488281 13.98751544952393 42.25454711914063 11.13669490814209 41.06082916259766 C 8.382684707641602 39.90763854980469 5.909474849700928 38.25689697265625 3.785754919052124 36.15444946289063 C 1.659965038299561 34.0499382019043 -0.00966501422226429 31.59780883789063 -1.176725029945374 28.86618804931641 C -2.386554956436157 26.03445816040039 -2.999994993209839 23.02785873413086 -2.999994993209839 19.92990875244141 C -2.999994993209839 16.83195877075195 -2.386554956436157 13.82535839080811 -1.176725029945374 10.99362850189209 C -0.00966501422226429 8.262008666992188 1.659965038299561 5.809878826141357 3.785754919052124 3.705368757247925 C 5.909464836120605 1.602918744087219 8.382684707641602 -0.04782124608755112 11.13669490814209 -1.201011300086975 C 13.98751544952393 -2.394731283187866 17.0138053894043 -3.000001192092896 20.13148498535156 -3.000001192092896 C 23.24916458129883 -3.000001192092896 26.27545547485352 -2.394731283187866 29.12627410888672 -1.201011300086975 C 31.88028526306152 -0.04782124608755112 34.3535041809082 1.602918744087219 36.47721481323242 3.705368757247925 C 38.6030158996582 5.809878826141357 40.27263641357422 8.262008666992188 41.43970489501953 10.99362850189209 C 42.6495361328125 13.82535839080811 43.26297378540039 16.83195877075195 43.26297378540039 19.92990875244141 C 43.26297378540039 23.02785873413086 42.6495361328125 26.03445816040039 41.43970489501953 28.86618804931641 C 40.27263641357422 31.59781837463379 38.6030158996582 34.0499382019043 36.47721481323242 36.15444946289063 C 34.3535041809082 38.25689697265625 31.88028526306152 39.90763854980469 29.12627410888672 41.06082916259766 C 26.27545547485352 42.25454711914063 23.24916458129883 42.85981750488281 20.13148498535156 42.85981750488281 Z"/></g><g transform="translate(16.849 26.555)"><path class="b" d="M220.083,343.2a.749.749,0,0,1-.346-.084,4.783,4.783,0,0,0-4.379,0,.75.75,0,0,1-1.007-.312.735.735,0,0,1,.315-1,6.289,6.289,0,0,1,5.763,0,.735.735,0,0,1,.315,1A.747.747,0,0,1,220.083,343.2Z" transform="translate(-214.267 -341.11)"/></g><g transform="translate(6.242 9.548)"><path class="c" d="M159.2,302.041a11.5,11.5,0,0,0-8.144,3.34.733.733,0,0,0,0,1.045.751.751,0,0,0,1.055,0,10.1,10.1,0,0,1,14.178,0,.752.752,0,0,0,1.055,0,.733.733,0,0,0,0-1.045A11.5,11.5,0,0,0,159.2,302.041Z" transform="translate(-145.222 -288.076)"/><path class="c" d="M85.593,123.393a.746.746,0,0,0-1.492,0,3.957,3.957,0,0,1-3.972,3.932.739.739,0,1,0,0,1.477A5.444,5.444,0,0,0,85.593,123.393Z" transform="translate(-79.382 -122.654)"/><path class="c" d="M359.1,127.323a3.957,3.957,0,0,1-3.972-3.932.746.746,0,0,0-1.492,0,5.444,5.444,0,0,0,5.465,5.41.739.739,0,1,0,0-1.477Z" transform="translate(-332.07 -122.652)"/><path class="c" d="M113.088,196.645a2.761,2.761,0,1,0-2.761,2.733A2.75,2.75,0,0,0,113.088,196.645Z" transform="translate(-105.351 -188.364)"/><path class="c" d="M336.98,193.912a2.733,2.733,0,1,0,2.761,2.733A2.75,2.75,0,0,0,336.98,193.912Z" transform="translate(-314.179 -188.364)"/></g></g></svg>