<svg xmlns="http://www.w3.org/2000/svg" viewBox="0 0 45.462 45.462"><defs><style>.a{fill:#f7b239;stroke:#fff;stroke-width:3px;}.b{fill:#e09b2d;}.c{fill:#4d4d4d;}.d{stroke:none;}.e{fill:none;}</style></defs><g transform="translate(3 3)"><g class="a" transform="translate(0 0)"><ellipse class="d" cx="19.731" cy="19.731" rx="19.731" ry="19.731"/><ellipse class="e" cx="19.731" cy="19.731" rx="21.231" ry="21.231"/></g><g transform="translate(0 4.101)"><path class="b" d="M223.388,357.654a8.11,8.11,0,0,1-2.189-.3.731.731,0,0,1,.395-1.408,6.647,6.647,0,0,0,3.589,0,.731.731,0,0,1,.395,1.408A8.112,8.112,0,0,1,223.388,357.654Z" transform="translate(-203.657 -332.586)"/></g><g transform="translate(7.803 12.843)"><path class="c" d="M325.543,166.633a2.706,2.706,0,1,0,2.706,2.706A2.709,2.709,0,0,0,325.543,166.633Z" transform="translate(-305.757 -166.633)"/><path class="c" d="M107.68,183.488a.731.731,0,0,0,1.256-.75,4.424,4.424,0,0,0-7.595,0,.731.731,0,1,0,1.256.75,2.961,2.961,0,0,1,5.084,0Z" transform="translate(-101.237 -179.508)"/><path class="c" d="M175.8,275.779a.731.731,0,0,0-1,.253,6.892,6.892,0,0,1-11.833,0,.731.731,0,0,0-1.256.75,8.354,8.354,0,0,0,14.344,0A.731.731,0,0,0,175.8,275.779Z" transform="translate(-156.952 -267.271)"/></g></g></svg>