<?xml version="1.0" encoding="utf-8"?>
<!-- Generator: Adobe Illustrator 19.0.0, SVG Export Plug-In . SVG Version: 6.00 Build 0)  -->
<svg version="1.1" id="Layer_1" xmlns="http://www.w3.org/2000/svg" xmlns:xlink="http://www.w3.org/1999/xlink" x="0px" y="0px"
	 viewBox="-8141 1451 100 136.3" style="enable-background:new -8141 1451 100 136.3;" xml:space="preserve">
<style type="text/css">
	.st0{fill:#F8DC24;}
	.st1{fill:none;stroke:#46A7DD;stroke-width:3.4399;stroke-linecap:round;stroke-linejoin:round;}
	.st2{opacity:0.7;fill:#F1BC1B;enable-background:new    ;}
	.st3{fill:#46A7DD;}
	.st4{opacity:0.4;fill:#386CB5;enable-background:new    ;}
	.st5{fill:none;stroke:#3A3D54;stroke-width:3.4399;stroke-linecap:round;stroke-miterlimit:10;}
	.st6{fill:#3A3D54;}
	.st7{fill:none;stroke:#F1BC1B;stroke-width:3.4399;stroke-linecap:round;stroke-linejoin:round;}
	.st8{font-family:'CoconNextArabic-Light';}
	.st9{font-size:37.1949px;}
</style>
<g id="XMLID_165_">
	<circle id="XMLID_177_" class="st0" cx="-8091.1" cy="1500.9" r="49.9"/>
	<line id="XMLID_176_" class="st1" x1="-8073.1" y1="1490.6" x2="-8053.3" y2="1490.6"/>
	<line id="XMLID_175_" class="st1" x1="-8129" y1="1490.6" x2="-8109.2" y2="1490.6"/>
	<path id="XMLID_174_" class="st2" d="M-8100.6,1537.9c-11.1,0-22-3-31.6-8.7c15.7,22.7,46.7,28.4,69.4,12.7
		c15.2-10.5,23.4-28.6,21.2-47C-8049.8,1520.5-8073.7,1537.9-8100.6,1537.9z"/>
	<path id="XMLID_173_" class="st3" d="M-8072.2,1547c7.3-3,13.8-7.7,18.9-13.7V1488h-18.9V1547z"/>
	<path id="XMLID_172_" class="st4" d="M-8053.3,1533.4v-17.5c-5.2,6.2-11.7,11.3-18.9,15.1v16c2.7-1.1,5.3-2.5,7.8-4l0.2-0.1
		c0.8-0.5,1.6-1,2.4-1.6l0,0C-8058.7,1539-8055.8,1536.3-8053.3,1533.4z"/>
	<path id="XMLID_171_" class="st5" d="M-8078.2,1481.1L-8078.2,1481.1c0,3.8,3.1,6.9,6.9,6.9h18.1"/>
	<path id="XMLID_170_" class="st3" d="M-8129,1533.4c5.2,5.9,11.7,10.6,19,13.6v-59h-19V1533.4z"/>
	<path id="XMLID_169_" class="st4" d="M-8110,1537.1c-6.6-1-13-3.1-19-6.1v2.4l0,0c0.6,0.7,1.3,1.4,1.9,2.1l0,0
		c0.7,0.7,1.4,1.4,2.1,2l0,0c0.7,0.7,1.4,1.3,2.2,1.9l0,0c0.8,0.7,1.6,1.3,2.4,1.9l0,0c3.2,2.3,6.7,4.2,10.3,5.7v-9.9H-8110z"/>
	<path id="XMLID_168_" class="st5" d="M-8104,1481.1L-8104,1481.1c0,3.8-3.1,6.9-6.9,6.9h-18.1"/>
	<path id="XMLID_167_" class="st6" d="M-8104.1,1507.8c-0.9,0-1.6-0.7-1.6-1.6c0-0.1,0-0.2,0-0.2c1-8.1,8.3-13.8,16.4-12.9
		c6.8,0.8,12.1,6.1,12.9,12.9c0.1,0.9-0.5,1.7-1.4,1.8c-0.1,0-0.2,0-0.2,0H-8104.1z"/>
	<line id="XMLID_166_" class="st7" x1="-8096.3" y1="1512.9" x2="-8086" y2="1512.9"/>
</g>
<text transform="matrix(1 0 0 1 -8102.125 1579.5839)" class="st8 st9">2</text>
</svg>
