<?xml version="1.0" encoding="utf-8"?>
<!-- Generator: Adobe Illustrator 19.0.0, SVG Export Plug-In . SVG Version: 6.00 Build 0)  -->
<svg version="1.1" id="Layer_1" xmlns="http://www.w3.org/2000/svg" xmlns:xlink="http://www.w3.org/1999/xlink" x="0px" y="0px"
	 viewBox="-8141 1451 100 136.5" style="enable-background:new -8141 1451 100 136.5;" xml:space="preserve">
<style type="text/css">
	.st0{fill:#F8DC24;}
	.st1{opacity:0.7;fill:#F1BC1B;enable-background:new    ;}
	.st2{fill:#3A3D54;}
	.st3{fill:#46A7DD;}
	.st4{font-family:'CoconNextArabic-Light';}
	.st5{font-size:37.1949px;}
</style>
<g id="XMLID_129_">
	<circle id="XMLID_136_" class="st0" cx="-8091" cy="1501" r="50"/>
	<path id="XMLID_135_" class="st1" d="M-8100.5,1538.1c-11.1,0-22.1-3-31.7-8.7c15.7,22.7,46.8,28.4,69.5,12.7
		c15.4-10.6,23.5-28.7,21.3-47.1C-8049.6,1520.6-8073.5,1538.1-8100.5,1538.1z"/>
	<path id="XMLID_134_" class="st2" d="M-8053.8,1495.2c-3.7-7.3-12.7-10.2-20-6.5c-2.8,1.4-5,3.7-6.5,6.5
		C-8076.2,1493.9-8057.8,1493.9-8053.8,1495.2z"/>
	<path id="XMLID_133_" class="st2" d="M-8101.8,1495.2c-3.7-7.3-12.7-10.2-20-6.5c-2.8,1.4-5,3.7-6.5,6.5
		C-8124.2,1493.9-8105.8,1493.9-8101.8,1495.2z"/>
	<path id="XMLID_132_" class="st2" d="M-8068.3,1512.2c1.6,0,2.8,1.3,2.8,2.8c0,0.1,0,0.2,0,0.3c-1.6,14.2-14.3,24.3-28.4,22.7
		c-11.9-1.3-21.3-10.7-22.6-22.6c-0.2-1.6,0.9-3,2.5-3.2c0.1,0,0.2,0,0.3,0H-8068.3z"/>
	<path id="XMLID_131_" class="st3" d="M-8049.2,1506.2c0.2,2.6-1.7,4.9-4.3,5.1c-2.6,0.2-4.9-1.7-5.1-4.3c0-0.3,0-0.5,0-0.8
		c0-2.6,2.1-9.5,4.8-9.5C-8051.1,1496.7-8049.2,1503.6-8049.2,1506.2z"/>
	<path id="XMLID_130_" class="st3" d="M-8123.3,1506.2c-0.2,2.6-2.5,4.6-5.1,4.3c-2.3-0.2-4.1-2-4.3-4.3c0-2.6,2.1-9.5,4.8-9.5
		C-8125.2,1496.7-8123.3,1503.6-8123.3,1506.2z"/>
</g>
<g>
	<text transform="matrix(1 0 0 1 -8100.7202 1580.1102)" class="st4 st5">7</text>
</g>
</svg>
