<?xml version="1.0" encoding="utf-8"?>
<!-- Generator: Adobe Illustrator 19.0.0, SVG Export Plug-In . SVG Version: 6.00 Build 0)  -->
<svg version="1.1" id="Layer_1" xmlns="http://www.w3.org/2000/svg" xmlns:xlink="http://www.w3.org/1999/xlink" x="0px" y="0px"
	 viewBox="0 0 100 100" style="enable-background:new 0 0 100 100;" xml:space="preserve">
<style type="text/css">
	.st0{fill:#F8DC24;}
	.st1{opacity:0.7;fill:#F1BC1B;enable-background:new    ;}
	.st2{fill:#3A3D54;}
	.st3{fill:#46A7DD;}
</style>
<g id="XMLID_129_">
	<circle id="XMLID_136_" class="st0" cx="50" cy="50" r="50"/>
	<path id="XMLID_135_" class="st1" d="M40.5,87.1c-11.1,0-22.1-3-31.7-8.7c15.7,22.7,46.8,28.4,69.5,12.7
		C93.7,80.5,101.8,62.4,99.6,44C91.4,69.6,67.5,87.1,40.5,87.1z"/>
	<path id="XMLID_134_" class="st2" d="M87.2,44.2c-3.7-7.3-12.7-10.2-20-6.5c-2.8,1.4-5,3.7-6.5,6.5C64.8,42.9,83.2,42.9,87.2,44.2z
		"/>
	<path id="XMLID_133_" class="st2" d="M39.2,44.2c-3.7-7.3-12.7-10.2-20-6.5c-2.8,1.4-5,3.7-6.5,6.5C16.8,42.9,35.2,42.9,39.2,44.2z
		"/>
	<path id="XMLID_132_" class="st2" d="M72.7,61.2c1.6,0,2.8,1.3,2.8,2.8c0,0.1,0,0.2,0,0.3C73.9,78.5,61.2,88.6,47.1,87
		c-11.9-1.3-21.3-10.7-22.6-22.6c-0.2-1.6,0.9-3,2.5-3.2c0.1,0,0.2,0,0.3,0H72.7z"/>
	<path id="XMLID_131_" class="st3" d="M91.8,55.2c0.2,2.6-1.7,4.9-4.3,5.1c-2.6,0.2-4.9-1.7-5.1-4.3c0-0.3,0-0.5,0-0.8
		c0-2.6,2.1-9.5,4.8-9.5S91.8,52.6,91.8,55.2z"/>
	<path id="XMLID_130_" class="st3" d="M17.7,55.2c-0.2,2.6-2.5,4.6-5.1,4.3c-2.3-0.2-4.1-2-4.3-4.3c0-2.6,2.1-9.5,4.8-9.5
		S17.7,52.6,17.7,55.2z"/>
</g>
</svg>
